<?xml version="1.0" encoding="UTF-8"?>
<svg version="1.1" xmlns="http://www.w3.org/2000/svg" width="512" height="512">
<path d="M0 0 C2.62467613 1.67687642 3.74858863 3.04980141 4.54907227 6.07519531 C4.69916748 6.88053711 4.8492627 7.68587891 5.00390625 8.515625 C5.17196777 9.40950928 5.3400293 10.30339355 5.51318359 11.22436523 C5.97025353 13.83039738 6.40420929 16.43854588 6.82421875 19.05078125 C10.91390392 44.38863165 19.54294723 67.23043975 34.90625 87.9375 C50.43647086 108.88940246 62.0120091 130.80645385 69 156 C74.35232703 146.39569744 78.21615433 137.06669873 80.83251953 126.3605957 C82.64317694 119.24008652 85.42550506 112.98164151 91 108 C94.89951329 106.98988511 98.57084872 107.36399027 102.23828125 108.99609375 C112.63202186 115.51295065 120.52215321 125.45489864 128 135 C128.41282227 135.52529297 128.82564453 136.05058594 129.25097656 136.59179688 C132.20898186 140.36387035 135.11766006 144.16977645 138 148 C138.58265625 148.7734375 139.1653125 149.546875 139.765625 150.34375 C146.14367966 159.13679623 151.55827312 168.61100159 157 178 C157.41572266 178.71575195 157.83144531 179.43150391 158.25976562 180.16894531 C178.86737133 216.10237543 190.48364311 258.56409295 190.375 299.9375 C190.3737915 300.79272247 190.37258301 301.64794495 190.37133789 302.52908325 C190.26122712 331.34554091 184.44745136 358.78572633 170 384 C169.62649414 384.6590332 169.25298828 385.31806641 168.86816406 385.99707031 C162.95690086 396.28886994 156.05944352 405.30428462 148 414 C147.17757813 414.89332031 146.35515625 415.78664063 145.5078125 416.70703125 C114.50848247 448.97682563 65.97014216 468.94017093 21.45947266 470.17700195 C19.86108533 470.20311127 18.26259283 470.22329668 16.6640625 470.23828125 C15.79523941 470.2480751 14.92641632 470.25786896 14.03126526 470.26795959 C-43.66045583 470.78397883 -98.30551867 456.41695885 -140.55126953 415.42431641 C-171.80377053 384.69848378 -182.94368931 340.76944569 -183.32225037 298.01679993 C-183.32969694 295.53188842 -183.32371361 293.04739459 -183.3125 290.5625 C-183.31034485 289.69426605 -183.3081897 288.8260321 -183.30596924 287.93148804 C-183.09026426 233.40737799 -167.58611189 181.5494723 -142.625 133.375 C-142.0364624 132.22994995 -142.0364624 132.22994995 -141.43603516 131.06176758 C-135.77726097 120.38863049 -135.77726097 120.38863049 -131 118 C-129.01171875 117.76171875 -129.01171875 117.76171875 -126.6875 117.6875 C-125.54861328 117.63142578 -125.54861328 117.63142578 -124.38671875 117.57421875 C-120.79268552 118.21538016 -119.53152833 119.31196297 -117 122 C-115.04044282 125.64355763 -113.47529633 129.437831 -111.875 133.25 C-105.61504833 147.5143047 -97.87510476 159.78212689 -87 171 C-85.34283888 169.34283888 -85.7347816 167.30711426 -85.60546875 165.0234375 C-81.78073398 104.07986155 -59.05160563 50.31245954 -16 6.75 C-15.45996338 6.20061768 -14.91992676 5.65123535 -14.36352539 5.08520508 C-9.55217599 0.3132371 -6.77492958 -1.97602113 0 0 Z " fill="#F1A02B" transform="translate(258,42)"/>
<path d="M0 0 C2.62467613 1.67687642 3.74858863 3.04980141 4.54907227 6.07519531 C4.69916748 6.88053711 4.8492627 7.68587891 5.00390625 8.515625 C5.17196777 9.40950928 5.3400293 10.30339355 5.51318359 11.22436523 C5.97025353 13.83039738 6.40420929 16.43854588 6.82421875 19.05078125 C10.91390392 44.38863165 19.54294723 67.23043975 34.90625 87.9375 C50.43647086 108.88940246 62.0120091 130.80645385 69 156 C74.35232703 146.39569744 78.21615433 137.06669873 80.83251953 126.3605957 C82.64317694 119.24008652 85.42550506 112.98164151 91 108 C94.89951329 106.98988511 98.57084872 107.36399027 102.23828125 108.99609375 C112.63202186 115.51295065 120.52215321 125.45489864 128 135 C128.41282227 135.52529297 128.82564453 136.05058594 129.25097656 136.59179688 C132.20898186 140.36387035 135.11766006 144.16977645 138 148 C138.58265625 148.7734375 139.1653125 149.546875 139.765625 150.34375 C146.14367966 159.13679623 151.55827312 168.61100159 157 178 C157.41572266 178.71575195 157.83144531 179.43150391 158.25976562 180.16894531 C178.86737133 216.10237543 190.48364311 258.56409295 190.375 299.9375 C190.3737915 300.79272247 190.37258301 301.64794495 190.37133789 302.52908325 C190.26122712 331.34554091 184.44745136 358.78572633 170 384 C169.62649414 384.6590332 169.25298828 385.31806641 168.86816406 385.99707031 C162.95690086 396.28886994 156.05944352 405.30428462 148 414 C147.17757813 414.89332031 146.35515625 415.78664063 145.5078125 416.70703125 C119.51370082 443.76647537 75.63533046 467.29315652 37.5546875 468.0703125 C36.29011719 468.03550781 36.29011719 468.03550781 35 468 C37.68028077 465.31971923 40.5436152 465.04080484 44.125 464.25 C75.75988894 456.7417194 105.26006564 438.96009983 122.81933594 411.00292969 C135.02685988 390.29355697 140.65245726 367.47945511 140.375 343.5625 C140.37034729 342.84155151 140.36569458 342.12060303 140.36090088 341.37780762 C140.27988141 330.64703126 139.77045291 320.41720164 137 310 C136.70198486 308.81253174 136.70198486 308.81253174 136.39794922 307.60107422 C127.03980933 270.6521938 108.23647366 233.28913065 80 207 C75.8641253 204.63811644 72.7792636 202.88144894 68 204 C63.24777988 209.44766697 61.80788795 215.72100932 59.95605469 222.54833984 C58.1793227 228.90120596 55.51546163 234.40667101 52 240 C49.98615565 236.97923348 49.31502395 234.84518186 48.375 231.375 C43.77863979 216.12729584 35.99916118 202.32521728 26.48828125 189.6171875 C13.58556296 172.33945216 6.76606849 153.37748661 3.98706055 132.06689453 C3.52729956 127.57436968 3.52729956 127.57436968 1 124 C-1.75171884 123.22919907 -1.75171884 123.22919907 -5 124 C-7.91632438 126.07339746 -10.29792257 128.59289062 -12.75 131.1875 C-13.45519775 131.91638428 -14.16039551 132.64526855 -14.88696289 133.39624023 C-32.4185488 151.78282965 -44.77138124 173.79027775 -52.875 197.8125 C-53.14908691 198.62283691 -53.42317383 199.43317383 -53.70556641 200.26806641 C-57.6224308 212.41253421 -59.50645957 224.69979019 -60.6875 237.375 C-60.81762398 238.7084053 -60.9484806 240.04173932 -61.08007812 241.375 C-61.39387613 244.58271294 -61.70041439 247.79093402 -62 251 C-66.26496558 247.65601974 -69.7202737 244.24493547 -72.875 239.8125 C-73.29990723 239.22170654 -73.72481445 238.63091309 -74.16259766 238.0222168 C-78.05522174 232.36808936 -80.7828949 226.31931166 -83.31201172 219.9543457 C-85.46941515 214.53231597 -85.46941515 214.53231597 -90 211 C-92.91249553 210.08261403 -92.91249553 210.08261403 -96 211 C-101.38601903 216.39253175 -104.59559402 223.64311761 -107.8125 230.4375 C-108.5869043 232.06328979 -108.5869043 232.06328979 -109.37695312 233.72192383 C-114.72921084 245.19636384 -119.05443332 256.97775773 -123 269 C-123.23154785 269.70157227 -123.4630957 270.40314453 -123.70166016 271.12597656 C-134.71495228 305.14421386 -136.99843669 344.14588516 -129 379 C-128.82339844 379.78890625 -128.64679688 380.5778125 -128.46484375 381.390625 C-122.04610065 408.96744721 -104.32211921 430.62004423 -81 446 C-80.05640625 446.62777344 -79.1128125 447.25554687 -78.140625 447.90234375 C-56.48533706 461.39101886 -30.22887187 467.38846413 -5 469 C-5 469.33 -5 469.66 -5 470 C-13.44929005 470.22219981 -21.52362876 469.64737466 -29.875 468.375 C-31.04611328 468.19751221 -32.21722656 468.02002441 -33.42382812 467.8371582 C-77.77632323 460.74689566 -124.82985745 439.37466911 -152.22167969 402.34863281 C-175.87602488 369.23982221 -183.49386979 330.75336565 -183.3125 290.5625 C-183.31034485 289.69426605 -183.3081897 288.8260321 -183.30596924 287.93148804 C-183.09026426 233.40737799 -167.58611189 181.5494723 -142.625 133.375 C-142.0364624 132.22994995 -142.0364624 132.22994995 -141.43603516 131.06176758 C-135.77726097 120.38863049 -135.77726097 120.38863049 -131 118 C-129.01171875 117.76171875 -129.01171875 117.76171875 -126.6875 117.6875 C-125.54861328 117.63142578 -125.54861328 117.63142578 -124.38671875 117.57421875 C-120.79268552 118.21538016 -119.53152833 119.31196297 -117 122 C-115.04044282 125.64355763 -113.47529633 129.437831 -111.875 133.25 C-105.61504833 147.5143047 -97.87510476 159.78212689 -87 171 C-85.34283888 169.34283888 -85.7347816 167.30711426 -85.60546875 165.0234375 C-81.78073398 104.07986155 -59.05160563 50.31245954 -16 6.75 C-15.45996338 6.20061768 -14.91992676 5.65123535 -14.36352539 5.08520508 C-9.55217599 0.3132371 -6.77492958 -1.97602113 0 0 Z " fill="#EC6949" transform="translate(258,42)"/>
<path d="M0 0 C1.40079711 4.62616189 2.3686381 9.09180997 3.125 13.875 C5.48109243 26.58444488 11.55957172 37.52066684 19.26977539 47.74658203 C22.49813239 52.09396117 25.0867524 56.59250174 27.5 61.4375 C27.82613281 62.0879126 28.15226562 62.7383252 28.48828125 63.40844727 C30.47802708 67.5271153 31.85707101 71.57115017 33 76 C36.64682531 71.83219965 38.15637415 66.75496568 39.75 61.55078125 C40.12125 60.35001953 40.12125 60.35001953 40.5 59.125 C40.7165625 58.38507813 40.933125 57.64515625 41.15625 56.8828125 C42 55 42 55 45 53 C51.1683291 53.29687145 53.53269655 55.92051089 57.58203125 60.234375 C74.44551003 79.52248966 86.41137039 101.93010222 92 127 C92.17362061 127.73259033 92.34724121 128.46518066 92.52612305 129.2199707 C93.49264506 134.89013359 93.30600919 140.71146721 93.35009766 146.4519043 C93.36649309 148.00609482 93.39356003 149.56021528 93.43212891 151.11401367 C93.95648511 172.42795347 86.82910321 190.06813452 72.74609375 206.1875 C60.67757862 218.54785689 45.49200641 226.23366969 29 231 C28.08839111 231.26731934 27.17678223 231.53463867 26.23754883 231.81005859 C19.01618396 233.78081837 12.4049961 234.4420557 4.9375 234.3125 C3.86056885 234.3019458 2.7836377 234.2913916 1.67407227 234.28051758 C-5.09476975 234.16981573 -11.82456061 233.84590185 -18.5625 233.1875 C-19.67540405 233.08272339 -19.67540405 233.08272339 -20.81079102 232.97583008 C-25.90425831 232.38926716 -30.28387148 230.97317302 -35 229 C-35.68940674 228.72551025 -36.37881348 228.45102051 -37.08911133 228.16821289 C-56.5480144 220.34242217 -72.38233668 209.56701335 -83 191 C-83.58394531 190.01773438 -83.58394531 190.01773438 -84.1796875 189.015625 C-95.39195032 168.67710174 -94.04188683 142.24244912 -91 120 C-90.85087158 118.88359131 -90.85087158 118.88359131 -90.69873047 117.74462891 C-88.04185757 98.91891169 -80.7516642 71.7516642 -67 58 C-64.625 57.5625 -64.625 57.5625 -62 58 C-57.78045701 62.53178917 -55.55514841 67.86922972 -52.9765625 73.4296875 C-50.93400296 77.47220654 -48.05998665 80.69289452 -45 84 C-44.93006836 83.40687012 -44.86013672 82.81374023 -44.78808594 82.20263672 C-41.02463268 50.93935215 -30.69827255 21.73961037 -6.8515625 -0.05859375 C-4.28537716 -1.36334199 -2.69533841 -0.782667 0 0 Z " fill="#F1D14B" transform="translate(261,278)"/>
<path d="M0 0 C0.59296875 0.22042969 1.1859375 0.44085938 1.796875 0.66796875 C1.95542969 1.49039062 2.11398437 2.3128125 2.27734375 3.16015625 C4.26656475 12.67764455 7.33742508 20.19181887 12.859375 28.16796875 C16.00303535 32.70881147 17.95623687 37.48170015 19.796875 42.66796875 C20.12300781 41.81332031 20.44914062 40.95867187 20.78515625 40.078125 C21.22214844 38.97339844 21.65914063 37.86867188 22.109375 36.73046875 C22.53863281 35.62832031 22.96789062 34.52617187 23.41015625 33.390625 C24.796875 30.66796875 24.796875 30.66796875 27.796875 29.66796875 C35.77068706 34.01568076 40.37144868 43.07647358 44.796875 50.66796875 C45.31636719 51.5496875 45.83585937 52.43140625 46.37109375 53.33984375 C53.71338948 66.83379266 54.95205945 83.52714753 52.05859375 98.484375 C48.69445836 108.65018047 40.52450239 118.41999263 31.10546875 123.6484375 C13.22539921 131.54471186 -4.6719797 133.5097411 -23.203125 126.54296875 C-34.28233346 121.66470366 -42.68348321 113.8768894 -47.484375 102.6796875 C-49.6027242 96.72561314 -50.93628717 90.97926356 -51.203125 84.66796875 C-51.26306641 83.64703125 -51.26306641 83.64703125 -51.32421875 82.60546875 C-51.86960865 65.15299198 -46.36241808 47.41378101 -37.203125 32.66796875 C-34.97265625 32.7578125 -34.97265625 32.7578125 -32.203125 33.66796875 C-30.53103721 35.86531972 -29.21581684 37.84411761 -27.890625 40.23046875 C-27.53162109 40.84599609 -27.17261719 41.46152344 -26.80273438 42.09570312 C-25.92153717 43.61136232 -25.06033023 45.13861251 -24.203125 46.66796875 C-24.11675781 45.81976563 -24.03039062 44.9715625 -23.94140625 44.09765625 C-21.90058079 27.0595721 -15.82158783 13.1517565 -3.84375 0.6796875 C-2.203125 -0.33203125 -2.203125 -0.33203125 0 0 Z " fill="#EAE8E7" transform="translate(260.203125,381.33203125)"/>
<path d="M0 0 C4.32739039 2.44591631 6.24850419 5.3908005 8 10 C8.41594517 14.81296076 7.48041367 17.7490744 5.2890625 22.015625 C4.41797852 23.74921265 4.41797852 23.74921265 3.52929688 25.51782227 C3.21855225 26.12570587 2.90780762 26.73358948 2.58764648 27.3598938 C-7.79738317 47.75035829 -16.04963933 68.89328029 -22 91 C-22.37850098 92.39484619 -22.37850098 92.39484619 -22.76464844 93.81787109 C-26.68033073 108.40850677 -29.83861385 123.04590961 -32 138 C-32.11859375 138.80808105 -32.2371875 139.61616211 -32.359375 140.44873047 C-39.45019271 191.44563817 -34.06359021 250.45470568 -3 293 C0.26925135 297.05799846 3.84338621 300.80749331 7.51513672 304.50048828 C8.95970312 305.95930558 10.37464426 307.44190842 11.78515625 308.93359375 C24.2964171 321.91290177 39.7503104 332.21046625 56 340 C52.00556173 341.33147942 49.56093672 340.02551159 45.8125 338.5625 C45.10488525 338.29026611 44.39727051 338.01803223 43.66821289 337.73754883 C4.71246201 322.37672017 -29.50971604 294.65791842 -47 256 C-58.23020246 229.89327415 -61.43972875 200.75591546 -61.3125 172.5625 C-61.31034485 171.69426605 -61.3081897 170.8260321 -61.30596924 169.93148804 C-61.09026426 115.40737799 -45.58611189 63.5494723 -20.625 15.375 C-20.0364624 14.22994995 -20.0364624 14.22994995 -19.43603516 13.06176758 C-14.70026522 4.12952889 -10.77551709 -1.32593018 0 0 Z " fill="#D8553A" transform="translate(136,160)"/>
<path d="M0 0 C3.5165113 2.94626623 4.78731366 4.93656828 5.6875 9.4375 C5.59622544 15.10666436 1.72859037 17.995222 -2.0234375 21.84765625 C-37.6614535 58.74417644 -55.0928061 114.27273039 -58.26660156 164.41186523 C-59.16654299 177.81395511 -59.16654299 177.81395511 -62.625 181.9375 C-66.1802895 183.52802425 -69.24412445 183.83024618 -73 183 C-77.44190517 180.71435948 -81.7410644 177.82193544 -85 174 C-85.34013064 170.91124607 -85.47346761 168.09035967 -85.4375 165 C-85.42992676 164.08009277 -85.42235352 163.16018555 -85.41455078 162.21240234 C-84.00399799 100.24074358 -54.42174029 46.06405644 -11.97265625 2.7421875 C-7.91163468 -0.84437808 -5.27778502 -1.53935396 0 0 Z " fill="#D8553A" transform="translate(258,42)"/>
<path d="M0 0 C0.59296875 0.22042969 1.1859375 0.44085938 1.796875 0.66796875 C1.95542969 1.49039062 2.11398437 2.3128125 2.27734375 3.16015625 C4.111037 11.93351734 6.82423369 19.20900679 11.796875 26.66796875 C11.136875 26.66796875 10.476875 26.66796875 9.796875 26.66796875 C9.53777344 27.21710938 9.27867187 27.76625 9.01171875 28.33203125 C7.796875 30.66796875 7.796875 30.66796875 6.17578125 33.19140625 C1.32311931 40.80956371 -0.80584974 47.78989671 -2.203125 56.66796875 C-2.48542969 58.35792969 -2.48542969 58.35792969 -2.7734375 60.08203125 C-2.91523438 60.93539062 -3.05703125 61.78875 -3.203125 62.66796875 C-7.44716912 58.78769984 -10.31230047 54.62542529 -13.203125 49.66796875 C-15.08733776 49.65866405 -15.08733776 49.65866405 -17.203125 50.66796875 C-18.74836638 52.89830738 -19.98384113 54.95507761 -21.203125 57.35546875 C-21.55052734 58.03536865 -21.89792969 58.71526855 -22.25585938 59.41577148 C-27.45283575 69.91819771 -29.5314547 79.26696376 -29.640625 90.91796875 C-29.6509375 91.82877197 -29.66125 92.7395752 -29.671875 93.67797852 C-29.53055321 104.50381634 -26.5388568 113.57430156 -19.203125 121.66796875 C-16.59967978 123.75527906 -13.96244164 125.60580844 -11.14453125 127.390625 C-10.50386719 127.81214844 -9.86320312 128.23367188 -9.203125 128.66796875 C-9.203125 128.99796875 -9.203125 129.32796875 -9.203125 129.66796875 C-20.88190577 128.99419294 -30.92714762 123.82920121 -39.203125 115.66796875 C-46.92048491 106.88410229 -50.7116127 96.29330317 -51.203125 84.66796875 C-51.26306641 83.64703125 -51.26306641 83.64703125 -51.32421875 82.60546875 C-51.86960865 65.15299198 -46.36241808 47.41378101 -37.203125 32.66796875 C-34.97265625 32.7578125 -34.97265625 32.7578125 -32.203125 33.66796875 C-30.53103721 35.86531972 -29.21581684 37.84411761 -27.890625 40.23046875 C-27.53162109 40.84599609 -27.17261719 41.46152344 -26.80273438 42.09570312 C-25.92153717 43.61136232 -25.06033023 45.13861251 -24.203125 46.66796875 C-24.11675781 45.81976563 -24.03039062 44.9715625 -23.94140625 44.09765625 C-21.90058079 27.0595721 -15.82158783 13.1517565 -3.84375 0.6796875 C-2.203125 -0.33203125 -2.203125 -0.33203125 0 0 Z " fill="#F6E6A1" transform="translate(260.203125,381.33203125)"/>
<path d="M0 0 C3.03522757 0.63967314 4.02451777 1.0495532 5.76171875 3.58203125 C7.09871498 6.66595181 7.34834801 9.27323637 6.76171875 12.58203125 C4.86979707 15.31128669 2.71119444 17.50809983 0.3671875 19.859375 C-4.17673193 24.60766862 -7.64108957 30.10888477 -11.23828125 35.58203125 C-11.89570313 36.54238281 -12.553125 37.50273437 -13.23046875 38.4921875 C-28.0088222 61.01582257 -35.53882377 87.58911949 -38.90966797 114.08129883 C-39.74438464 120.4559088 -40.50478657 125.84853657 -45.23828125 130.58203125 C-50.91320445 131.94401282 -54.78524315 131.20837595 -60.23828125 129.58203125 C-60.99561785 93.26530531 -49.32516364 54.02171903 -26.23828125 25.58203125 C-25.57828125 24.72222656 -24.91828125 23.86242187 -24.23828125 22.9765625 C-19.81032645 17.33580391 -15.01968914 12.05866956 -10.05078125 6.89453125 C-9.4686084 6.26957764 -8.88643555 5.64462402 -8.28662109 5.00073242 C-5.48445921 2.15512308 -4.01354665 0.72137328 0 0 Z " fill="#E89428" transform="translate(256.23828125,164.41796875)"/>
<path d="M0 0 C0.74032386 2.32673212 1.38754692 4.63768096 2 7 C2.39058594 8.39605469 2.39058594 8.39605469 2.7890625 9.8203125 C4.59699792 17.58847456 4.59699792 17.58847456 3.03515625 21.28125 C2.0144376 22.73245742 0.9494865 24.15316326 -0.1484375 25.546875 C-8.51012233 36.62522537 -12.94770612 50.94154692 -15.41113281 64.41748047 C-17.81806394 77.49345052 -17.81806394 77.49345052 -23.12109375 82.72265625 C-27.88274034 85.95978397 -32.17751478 86.26520059 -37.8125 86.125 C-38.50537109 86.11597656 -39.19824219 86.10695313 -39.91210938 86.09765625 C-41.60822395 86.07426157 -43.30415871 86.03839641 -45 86 C-41.49305466 53.21733355 -31.94597864 22.88013466 -6.8515625 -0.05859375 C-4.28537716 -1.36334199 -2.69533841 -0.782667 0 0 Z " fill="#E8C741" transform="translate(261,278)"/>
<path d="M0 0 C7.82834315 3.89119209 12.22175633 13.13354932 14.99609375 20.9921875 C18.21488662 33.31380863 16.37309889 46.2927742 10.18359375 57.2421875 C7.51352267 61.43612048 4.88001033 64.86816764 0.99609375 67.9921875 C-2.74152034 67.76566543 -4.49953771 65.8633252 -6.94140625 63.1796875 C-15.91466075 52.71647096 -17.97558758 40.37362759 -17.00390625 26.9921875 C-15.65158983 19.79069524 -9.45048362 -0.03684399 0 0 Z " fill="#D8553A" transform="translate(185.00390625,0.0078125)"/>
<path d="M0 0 C7.91844334 3.48272891 11.76620924 10.86207439 15.0546875 18.484375 C19.19867069 29.51216497 18.39484209 43.49906263 13.62890625 54.1171875 C10.27313826 60.05617257 6.50239195 66.29187685 0 69 C-8.8034375 60.3696638 -12.06121875 50.28608607 -12.25 38.0625 C-12.12915677 26.27357127 -10.19234603 10.68504626 -1.83984375 1.66796875 C-1.23269531 1.11753906 -0.62554687 0.56710938 0 0 Z " fill="#D8553A" transform="translate(443,141)"/>
<path d="M0 0 C3.38378339 0.3144526 4.92025804 1.57716023 7.0625 4.125 C13.4055903 12.06988078 14.53550856 20.47959716 13.8203125 30.5234375 C12.56810656 37.80667611 8.5815361 43.69906565 3.125 48.5625 C2.42375 49.036875 1.7225 49.51125 1 50 C-6.68679807 42.27001767 -10.15884509 35.44249712 -10.5 24.4375 C-10.32113242 18.10047716 -9.31523431 13.39007483 -6 8 C-5.46246094 7.10667969 -5.46246094 7.10667969 -4.9140625 6.1953125 C-3.45030256 3.8951183 -1.92988958 1.92988958 0 0 Z " fill="#D85439" transform="translate(329,68)"/>
<path d="M0 0 C5.86392451 2.43169224 8.66850264 7.83212524 11.05078125 13.5 C14.07808209 22.68233431 13.85286735 31.07681652 10 40 C7.31379593 44.50710431 4.89679473 47.8847539 0 50 C-6.39562471 43.08581112 -8.54907833 36.51717978 -8.375 27.125 C-8.36557373 26.33561035 -8.35614746 25.5462207 -8.34643555 24.73291016 C-8.09717696 15.07836046 -5.57173357 7.88411312 0 0 Z " fill="#D8553A" transform="translate(60,173)"/>
<path d="M0 0 C-2.5654594 2.5654594 -4.47686668 2.54046087 -8 3 C-8 3.66 -8 4.32 -8 5 C-12.95 5.33 -17.9 5.66 -23 6 C-23 5.67 -23 5.34 -23 5 C-19.54505894 3.96743263 -16.08559009 2.95095853 -12.625 1.9375 C-11.64015625 1.64294922 -10.6553125 1.34839844 -9.640625 1.04492188 C-8.69960938 0.77099609 -7.75859375 0.49707031 -6.7890625 0.21484375 C-5.91975098 -0.04176025 -5.05043945 -0.29836426 -4.15478516 -0.56274414 C-2 -1 -2 -1 0 0 Z " fill="#F18E3B" transform="translate(301,506)"/>
</svg>
